<?xml version="1.0" standalone="no"?>
<!DOCTYPE svg PUBLIC "-//W3C//DTD SVG 20010904//EN"
 "http://www.w3.org/TR/2001/REC-SVG-20010904/DTD/svg10.dtd">
<svg version="1.0" xmlns="http://www.w3.org/2000/svg"
 width="700.000000pt" height="700.000000pt" viewBox="0 0 700.000000 700.000000"
 preserveAspectRatio="xMidYMid meet">
<metadata>
Created by potrace 1.14, written by Peter Selinger 2001-2017
</metadata>
<g transform="translate(0.000000,700.000000) scale(0.100000,-0.100000)"
fill="#000000" stroke="none">
<path d="M2122 4955 c-165 -36 -325 -160 -395 -305 -30 -61 -73 -223 -237
-886 -110 -445 -200 -818 -200 -828 0 -29 27 -72 55 -84 17 -8 83 -12 185 -12
l159 0 12 -60 c11 -57 29 -73 29 -27 0 59 71 120 140 120 l35 0 1 86 c1 175
62 320 189 446 63 63 99 90 166 123 198 98 418 96 612 -5 108 -56 222 -173
275 -283 126 -259 81 -539 -118 -740 -209 -212 -533 -258 -799 -113 -64 34
-66 34 -98 19 -19 -9 -44 -16 -58 -16 -33 0 -51 -22 -59 -72 -6 -39 -4 -45 21
-66 48 -39 224 -121 308 -143 114 -31 307 -31 427 -1 167 41 305 120 424 244
117 120 178 230 219 393 l23 90 61 3 c44 2 62 -1 65 -10 2 -7 13 -52 24 -100
73 -311 329 -558 660 -635 109 -25 299 -22 407 6 332 88 579 350 645 684 l11
57 170 0 171 0 29 29 c16 17 29 40 29 54 0 14 -90 391 -200 839 -228 926 -224
915 -344 1033 -116 115 -264 174 -435 175 -70 0 -74 -1 -108 -35 -32 -32 -35
-39 -30 -78 8 -59 52 -97 110 -97 166 0 310 -78 373 -202 14 -28 93 -330 199
-760 97 -392 178 -721 181 -731 5 -16 -1 -18 -72 -15 l-77 3 -14 70 c-38 187
-166 385 -325 501 -46 34 -48 35 -77 19 -39 -20 -81 -92 -80 -136 1 -29 9 -41
62 -85 82 -67 156 -179 193 -291 54 -165 35 -353 -52 -510 -75 -135 -215 -249
-368 -300 -70 -23 -97 -27 -206 -27 -109 0 -136 4 -206 27 -254 84 -428 306
-450 576 -7 86 12 207 46 286 11 26 15 45 9 45 -6 0 -26 7 -45 16 -39 19 -69
63 -79 117 -4 20 -11 37 -16 37 -17 0 -91 -172 -112 -260 l-22 -90 -67 0 c-65
0 -68 1 -68 24 0 39 -48 193 -81 259 -131 261 -388 440 -684 477 -290 36 -607
-91 -786 -318 -92 -115 -161 -268 -184 -404 l-6 -38 -75 0 c-67 0 -75 2 -70
18 3 9 84 338 180 729 108 437 185 731 200 760 63 124 207 203 373 203 58 0
102 38 110 97 5 39 2 46 -30 78 -34 34 -37 35 -113 34 -44 0 -107 -7 -142 -14z"/>
</g>
</svg>
